<mxfile host="app.diagrams.net" modified="2023-12-12T08:36:54.676Z" agent="Mozilla/5.0 (Windows NT 10.0; Win64; x64) AppleWebKit/537.36 (KHTML, like Gecko) Chrome/120.0.0.0 Safari/537.36 Edg/120.0.0.0" etag="7Rbq4E3UcFHpFxfsC_yD" version="22.1.7" type="github">
  <diagram name="第 1 页" id="2JsahiHlJTiTY17OKHmK">
    <mxGraphModel dx="1078" dy="485" grid="1" gridSize="10" guides="1" tooltips="1" connect="1" arrows="1" fold="1" page="1" pageScale="1" pageWidth="827" pageHeight="1169" math="0" shadow="0">
      <root>
        <mxCell id="0" />
        <mxCell id="1" parent="0" />
        <mxCell id="bkOhlTEBw3p1X1VrgFmf-1" value="" style="whiteSpace=wrap;html=1;aspect=fixed;" parent="1" vertex="1">
          <mxGeometry x="154" y="120" width="260" height="260" as="geometry" />
        </mxCell>
        <mxCell id="bkOhlTEBw3p1X1VrgFmf-2" value="" style="endArrow=none;html=1;rounded=0;exitX=0;exitY=0.25;exitDx=0;exitDy=0;entryX=1;entryY=0.25;entryDx=0;entryDy=0;" parent="1" source="bkOhlTEBw3p1X1VrgFmf-1" target="bkOhlTEBw3p1X1VrgFmf-1" edge="1">
          <mxGeometry width="50" height="50" relative="1" as="geometry">
            <mxPoint x="210" y="240" as="sourcePoint" />
            <mxPoint x="260" y="190" as="targetPoint" />
          </mxGeometry>
        </mxCell>
        <mxCell id="bkOhlTEBw3p1X1VrgFmf-4" value="&lt;font style=&quot;font-size: 14px;&quot; data-font-src=&quot;https://fonts.googleapis.com/css?family=Noto+Sans+Simplified+Chinese&quot; face=&quot;Noto Sans Simplified Chinese&quot;&gt;数据模型&lt;/font&gt;" style="text;html=1;strokeColor=none;fillColor=none;align=center;verticalAlign=middle;whiteSpace=wrap;rounded=0;" parent="1" vertex="1">
          <mxGeometry x="220" y="90" width="60" height="30" as="geometry" />
        </mxCell>
        <mxCell id="bkOhlTEBw3p1X1VrgFmf-5" value="" style="rounded=0;whiteSpace=wrap;html=1;" parent="1" vertex="1">
          <mxGeometry x="220" y="140" width="120" height="30" as="geometry" />
        </mxCell>
        <mxCell id="bkOhlTEBw3p1X1VrgFmf-6" value="&lt;font data-font-src=&quot;https://fonts.googleapis.com/css?family=Noto+Sans+Simplified+Chinese&quot; face=&quot;Noto Sans Simplified Chinese&quot;&gt;特征对象容器&lt;/font&gt;" style="text;html=1;strokeColor=none;fillColor=none;align=center;verticalAlign=middle;whiteSpace=wrap;rounded=0;" parent="1" vertex="1">
          <mxGeometry x="244" y="140" width="80" height="30" as="geometry" />
        </mxCell>
        <mxCell id="bkOhlTEBw3p1X1VrgFmf-8" value="&lt;font data-font-src=&quot;https://fonts.googleapis.com/css?family=Noto+Sans+Simplified+Chinese&quot; face=&quot;Noto Sans Simplified Chinese&quot;&gt;数据获取接口&lt;/font&gt;" style="rounded=0;whiteSpace=wrap;html=1;" parent="1" vertex="1">
          <mxGeometry x="160" y="200" width="120" height="25" as="geometry" />
        </mxCell>
        <mxCell id="bkOhlTEBw3p1X1VrgFmf-9" value="&lt;font data-font-src=&quot;https://fonts.googleapis.com/css?family=Noto+Sans+Simplified+Chinese&quot; face=&quot;Noto Sans Simplified Chinese&quot;&gt;数据更改接口&lt;/font&gt;" style="rounded=0;whiteSpace=wrap;html=1;" parent="1" vertex="1">
          <mxGeometry x="160" y="235" width="120" height="30" as="geometry" />
        </mxCell>
        <mxCell id="bkOhlTEBw3p1X1VrgFmf-10" value="&lt;font face=&quot;Noto Sans Simplified Chinese&quot;&gt;模型重建接口&lt;/font&gt;" style="rounded=0;whiteSpace=wrap;html=1;" parent="1" vertex="1">
          <mxGeometry x="160" y="280" width="120" height="30" as="geometry" />
        </mxCell>
        <mxCell id="bkOhlTEBw3p1X1VrgFmf-11" value="&lt;font data-font-src=&quot;https://fonts.googleapis.com/css?family=Noto+Sans+Simplified+Chinese&quot; face=&quot;Noto Sans Simplified Chinese&quot;&gt;拓扑元素辨识接口&lt;/font&gt;" style="rounded=0;whiteSpace=wrap;html=1;" parent="1" vertex="1">
          <mxGeometry x="160" y="330" width="120" height="30" as="geometry" />
        </mxCell>
        <mxCell id="bkOhlTEBw3p1X1VrgFmf-17" value="" style="swimlane;startSize=0;" parent="1" vertex="1">
          <mxGeometry x="630" y="120" width="270" height="260" as="geometry">
            <mxRectangle x="450" y="130" width="50" height="40" as="alternateBounds" />
          </mxGeometry>
        </mxCell>
        <mxCell id="bkOhlTEBw3p1X1VrgFmf-41" style="edgeStyle=entityRelationEdgeStyle;rounded=0;orthogonalLoop=1;jettySize=auto;html=1;startArrow=none;endArrow=none;segment=10;curved=1;sourcePerimeterSpacing=0;targetPerimeterSpacing=0;exitX=1;exitY=0.5;exitDx=0;exitDy=0;" parent="bkOhlTEBw3p1X1VrgFmf-17" source="bkOhlTEBw3p1X1VrgFmf-23" target="bkOhlTEBw3p1X1VrgFmf-40" edge="1">
          <mxGeometry relative="1" as="geometry" />
        </mxCell>
        <mxCell id="bkOhlTEBw3p1X1VrgFmf-23" value="&lt;font face=&quot;Times New Roman&quot;&gt;Label1&lt;/font&gt;" style="whiteSpace=wrap;html=1;rounded=1;arcSize=50;align=center;verticalAlign=middle;strokeWidth=1;autosize=1;spacing=4;treeFolding=1;treeMoving=1;newEdgeStyle={&quot;edgeStyle&quot;:&quot;entityRelationEdgeStyle&quot;,&quot;startArrow&quot;:&quot;none&quot;,&quot;endArrow&quot;:&quot;none&quot;,&quot;segment&quot;:10,&quot;curved&quot;:1,&quot;sourcePerimeterSpacing&quot;:0,&quot;targetPerimeterSpacing&quot;:0};" parent="bkOhlTEBw3p1X1VrgFmf-17" vertex="1">
          <mxGeometry x="70" y="12" width="80" height="30" as="geometry" />
        </mxCell>
        <mxCell id="bkOhlTEBw3p1X1VrgFmf-24" value="" style="edgeStyle=entityRelationEdgeStyle;startArrow=none;endArrow=none;segment=10;curved=1;sourcePerimeterSpacing=0;targetPerimeterSpacing=0;rounded=0;" parent="bkOhlTEBw3p1X1VrgFmf-17" target="bkOhlTEBw3p1X1VrgFmf-23" edge="1">
          <mxGeometry relative="1" as="geometry">
            <mxPoint x="40" y="40" as="sourcePoint" />
          </mxGeometry>
        </mxCell>
        <mxCell id="bkOhlTEBw3p1X1VrgFmf-28" value="&lt;font face=&quot;Times New Roman&quot;&gt;Label2&lt;/font&gt;" style="whiteSpace=wrap;html=1;rounded=1;arcSize=50;align=center;verticalAlign=middle;strokeWidth=1;autosize=1;spacing=4;treeFolding=1;treeMoving=1;newEdgeStyle={&quot;edgeStyle&quot;:&quot;entityRelationEdgeStyle&quot;,&quot;startArrow&quot;:&quot;none&quot;,&quot;endArrow&quot;:&quot;none&quot;,&quot;segment&quot;:10,&quot;curved&quot;:1,&quot;sourcePerimeterSpacing&quot;:0,&quot;targetPerimeterSpacing&quot;:0};" parent="bkOhlTEBw3p1X1VrgFmf-17" vertex="1">
          <mxGeometry x="70" y="60" width="80" height="30" as="geometry" />
        </mxCell>
        <mxCell id="bkOhlTEBw3p1X1VrgFmf-29" value="&lt;font face=&quot;Times New Roman&quot;&gt;Label3&lt;/font&gt;" style="whiteSpace=wrap;html=1;rounded=1;arcSize=50;align=center;verticalAlign=middle;strokeWidth=1;autosize=1;spacing=4;treeFolding=1;treeMoving=1;newEdgeStyle={&quot;edgeStyle&quot;:&quot;entityRelationEdgeStyle&quot;,&quot;startArrow&quot;:&quot;none&quot;,&quot;endArrow&quot;:&quot;none&quot;,&quot;segment&quot;:10,&quot;curved&quot;:1,&quot;sourcePerimeterSpacing&quot;:0,&quot;targetPerimeterSpacing&quot;:0};" parent="bkOhlTEBw3p1X1VrgFmf-17" vertex="1">
          <mxGeometry x="70" y="110" width="80" height="30" as="geometry" />
        </mxCell>
        <mxCell id="bkOhlTEBw3p1X1VrgFmf-30" value="&lt;font face=&quot;Times New Roman&quot;&gt;Label4&lt;/font&gt;" style="whiteSpace=wrap;html=1;rounded=1;arcSize=50;align=center;verticalAlign=middle;strokeWidth=1;autosize=1;spacing=4;treeFolding=1;treeMoving=1;newEdgeStyle={&quot;edgeStyle&quot;:&quot;entityRelationEdgeStyle&quot;,&quot;startArrow&quot;:&quot;none&quot;,&quot;endArrow&quot;:&quot;none&quot;,&quot;segment&quot;:10,&quot;curved&quot;:1,&quot;sourcePerimeterSpacing&quot;:0,&quot;targetPerimeterSpacing&quot;:0};" parent="bkOhlTEBw3p1X1VrgFmf-17" vertex="1">
          <mxGeometry x="70" y="160" width="80" height="30" as="geometry" />
        </mxCell>
        <mxCell id="bkOhlTEBw3p1X1VrgFmf-32" value="" style="edgeStyle=entityRelationEdgeStyle;startArrow=none;endArrow=none;segment=10;curved=1;sourcePerimeterSpacing=0;targetPerimeterSpacing=0;rounded=0;entryX=0;entryY=0.5;entryDx=0;entryDy=0;" parent="bkOhlTEBw3p1X1VrgFmf-17" target="bkOhlTEBw3p1X1VrgFmf-28" edge="1">
          <mxGeometry relative="1" as="geometry">
            <mxPoint x="40" y="90" as="sourcePoint" />
            <mxPoint x="60" y="77" as="targetPoint" />
          </mxGeometry>
        </mxCell>
        <mxCell id="bkOhlTEBw3p1X1VrgFmf-35" value="" style="edgeStyle=entityRelationEdgeStyle;startArrow=none;endArrow=none;segment=10;curved=1;sourcePerimeterSpacing=0;targetPerimeterSpacing=0;rounded=0;entryX=0;entryY=0.5;entryDx=0;entryDy=0;" parent="bkOhlTEBw3p1X1VrgFmf-17" target="bkOhlTEBw3p1X1VrgFmf-30" edge="1">
          <mxGeometry relative="1" as="geometry">
            <mxPoint x="40" y="190" as="sourcePoint" />
            <mxPoint x="60" y="177" as="targetPoint" />
          </mxGeometry>
        </mxCell>
        <mxCell id="bkOhlTEBw3p1X1VrgFmf-37" value="" style="edgeStyle=entityRelationEdgeStyle;startArrow=none;endArrow=none;segment=10;curved=1;sourcePerimeterSpacing=0;targetPerimeterSpacing=0;rounded=0;entryX=0;entryY=0.5;entryDx=0;entryDy=0;" parent="bkOhlTEBw3p1X1VrgFmf-17" target="bkOhlTEBw3p1X1VrgFmf-29" edge="1">
          <mxGeometry relative="1" as="geometry">
            <mxPoint x="40" y="140" as="sourcePoint" />
            <mxPoint x="60" y="127" as="targetPoint" />
          </mxGeometry>
        </mxCell>
        <mxCell id="bkOhlTEBw3p1X1VrgFmf-38" value="&lt;b&gt;.&lt;br&gt;.&lt;br&gt;.&lt;/b&gt;" style="text;html=1;strokeColor=none;fillColor=none;align=center;verticalAlign=middle;whiteSpace=wrap;rounded=0;" parent="bkOhlTEBw3p1X1VrgFmf-17" vertex="1">
          <mxGeometry x="70" y="200" width="60" height="30" as="geometry" />
        </mxCell>
        <mxCell id="bkOhlTEBw3p1X1VrgFmf-40" value="&lt;font data-font-src=&quot;https://fonts.googleapis.com/css?family=Noto+Sans+Simplified+Chinese&quot; face=&quot;Noto Sans Simplified Chinese&quot;&gt;参数A&lt;/font&gt;" style="ellipse;whiteSpace=wrap;html=1;aspect=fixed;" parent="bkOhlTEBw3p1X1VrgFmf-17" vertex="1">
          <mxGeometry x="170" y="7" width="40" height="40" as="geometry" />
        </mxCell>
        <mxCell id="bkOhlTEBw3p1X1VrgFmf-42" value="&lt;font data-font-src=&quot;https://fonts.googleapis.com/css?family=Noto+Sans+Simplified+Chinese&quot; face=&quot;Noto Sans Simplified Chinese&quot;&gt;参数B&lt;/font&gt;" style="ellipse;whiteSpace=wrap;html=1;aspect=fixed;" parent="bkOhlTEBw3p1X1VrgFmf-17" vertex="1">
          <mxGeometry x="230" y="7" width="40" height="40" as="geometry" />
        </mxCell>
        <mxCell id="bkOhlTEBw3p1X1VrgFmf-43" value="" style="endArrow=none;html=1;rounded=0;entryX=1;entryY=0.5;entryDx=0;entryDy=0;exitX=0;exitY=0.5;exitDx=0;exitDy=0;" parent="bkOhlTEBw3p1X1VrgFmf-17" source="bkOhlTEBw3p1X1VrgFmf-42" target="bkOhlTEBw3p1X1VrgFmf-40" edge="1">
          <mxGeometry width="50" height="50" relative="1" as="geometry">
            <mxPoint x="170" y="75" as="sourcePoint" />
            <mxPoint x="230" y="150" as="targetPoint" />
          </mxGeometry>
        </mxCell>
        <mxCell id="bkOhlTEBw3p1X1VrgFmf-44" value="&lt;b&gt;&#39;&lt;br&gt;&#39;&lt;br&gt;&#39;&lt;/b&gt;" style="text;html=1;strokeColor=none;fillColor=none;align=center;verticalAlign=middle;whiteSpace=wrap;rounded=0;" parent="bkOhlTEBw3p1X1VrgFmf-17" vertex="1">
          <mxGeometry x="160" y="60" width="60" height="30" as="geometry" />
        </mxCell>
        <mxCell id="bkOhlTEBw3p1X1VrgFmf-22" value="&lt;font face=&quot;Times New Roman&quot; style=&quot;font-size: 14px;&quot; data-font-src=&quot;https://fonts.googleapis.com/css?family=Noto+Sans+Simplified+Chinese&quot;&gt;OCAF&lt;/font&gt;&lt;font style=&quot;font-size: 14px;&quot; data-font-src=&quot;https://fonts.googleapis.com/css?family=Noto+Sans+Simplified+Chinese&quot; face=&quot;Noto Sans Simplified Chinese&quot;&gt;文档&lt;/font&gt;" style="text;html=1;strokeColor=none;fillColor=none;align=center;verticalAlign=middle;whiteSpace=wrap;rounded=0;" parent="1" vertex="1">
          <mxGeometry x="720" y="90" width="70" height="30" as="geometry" />
        </mxCell>
        <mxCell id="bkOhlTEBw3p1X1VrgFmf-39" value="&lt;font data-font-src=&quot;https://fonts.googleapis.com/css?family=Noto+Sans+Simplified+Chinese&quot; face=&quot;Noto Sans Simplified Chinese&quot;&gt;视图通知接口&lt;/font&gt;" style="rounded=0;whiteSpace=wrap;html=1;" parent="1" vertex="1">
          <mxGeometry x="290" y="200" width="120" height="30" as="geometry" />
        </mxCell>
        <mxCell id="Vt04K9wZHmTl40tGqoV4-1" value="&lt;font data-font-src=&quot;https://fonts.googleapis.com/css?family=Noto+Sans+Simplified+Chinese&quot; face=&quot;Noto Sans Simplified Chinese&quot;&gt;系统文件读保存接口&lt;/font&gt;" style="rounded=0;whiteSpace=wrap;html=1;" parent="1" vertex="1">
          <mxGeometry x="290" y="240" width="120" height="25" as="geometry" />
        </mxCell>
        <mxCell id="Vt04K9wZHmTl40tGqoV4-2" value="&lt;font data-font-src=&quot;https://fonts.googleapis.com/css?family=Noto+Sans+Simplified+Chinese&quot; face=&quot;Noto Sans Simplified Chinese&quot;&gt;系统文件读取接口&lt;/font&gt;" style="rounded=0;whiteSpace=wrap;html=1;" parent="1" vertex="1">
          <mxGeometry x="290" y="280" width="120" height="30" as="geometry" />
        </mxCell>
        <mxCell id="VD0jKBomqkg-u8sJT0UX-1" value="" style="endArrow=none;html=1;rounded=0;entryX=0.144;entryY=0.002;entryDx=0;entryDy=0;entryPerimeter=0;exitX=0.15;exitY=1.005;exitDx=0;exitDy=0;exitPerimeter=0;" parent="1" source="bkOhlTEBw3p1X1VrgFmf-17" target="bkOhlTEBw3p1X1VrgFmf-17" edge="1">
          <mxGeometry width="50" height="50" relative="1" as="geometry">
            <mxPoint x="610" y="470" as="sourcePoint" />
            <mxPoint x="660" y="420" as="targetPoint" />
          </mxGeometry>
        </mxCell>
        <mxCell id="VD0jKBomqkg-u8sJT0UX-2" value="&lt;font style=&quot;font-size: 14px;&quot; data-font-src=&quot;https://fonts.googleapis.com/css?family=Noto+Sans+Simplified+Chinese&quot; face=&quot;Noto Sans Simplified Chinese&quot;&gt;线性结构&lt;/font&gt;" style="text;html=1;strokeColor=none;fillColor=none;align=center;verticalAlign=middle;whiteSpace=wrap;rounded=0;" parent="1" vertex="1">
          <mxGeometry x="490" y="90" width="60" height="30" as="geometry" />
        </mxCell>
        <mxCell id="VD0jKBomqkg-u8sJT0UX-3" value="" style="swimlane;startSize=0;" parent="1" vertex="1">
          <mxGeometry x="460" y="120" width="130" height="260" as="geometry">
            <mxRectangle x="450" y="130" width="50" height="40" as="alternateBounds" />
          </mxGeometry>
        </mxCell>
        <mxCell id="VD0jKBomqkg-u8sJT0UX-18" value="&lt;font data-font-src=&quot;https://fonts.googleapis.com/css?family=Noto+Sans+Simplified+Chinese&quot; face=&quot;Noto Sans Simplified Chinese&quot;&gt;特征对象1&lt;/font&gt;" style="rounded=0;whiteSpace=wrap;html=1;" parent="VD0jKBomqkg-u8sJT0UX-3" vertex="1">
          <mxGeometry x="12.5" y="20" width="75" height="30" as="geometry" />
        </mxCell>
        <mxCell id="VD0jKBomqkg-u8sJT0UX-21" value="&lt;font data-font-src=&quot;https://fonts.googleapis.com/css?family=Noto+Sans+Simplified+Chinese&quot; face=&quot;Noto Sans Simplified Chinese&quot;&gt;特征对象4&lt;/font&gt;" style="rounded=0;whiteSpace=wrap;html=1;" parent="VD0jKBomqkg-u8sJT0UX-3" vertex="1">
          <mxGeometry x="12.5" y="170" width="75" height="25" as="geometry" />
        </mxCell>
        <mxCell id="VD0jKBomqkg-u8sJT0UX-20" value="&lt;font data-font-src=&quot;https://fonts.googleapis.com/css?family=Noto+Sans+Simplified+Chinese&quot; face=&quot;Noto Sans Simplified Chinese&quot;&gt;特征对象3&lt;/font&gt;" style="rounded=0;whiteSpace=wrap;html=1;" parent="VD0jKBomqkg-u8sJT0UX-3" vertex="1">
          <mxGeometry x="12.5" y="120" width="75" height="30" as="geometry" />
        </mxCell>
        <mxCell id="VD0jKBomqkg-u8sJT0UX-19" value="&lt;font face=&quot;Noto Sans Simplified Chinese&quot;&gt;特征对象2&lt;/font&gt;" style="rounded=0;whiteSpace=wrap;html=1;" parent="VD0jKBomqkg-u8sJT0UX-3" vertex="1">
          <mxGeometry x="12.5" y="70" width="75" height="30" as="geometry" />
        </mxCell>
        <mxCell id="VD0jKBomqkg-u8sJT0UX-22" value="&lt;b&gt;.&lt;br&gt;.&lt;br&gt;.&lt;/b&gt;" style="text;html=1;strokeColor=none;fillColor=none;align=center;verticalAlign=middle;whiteSpace=wrap;rounded=0;" parent="VD0jKBomqkg-u8sJT0UX-3" vertex="1">
          <mxGeometry x="12.5" y="200" width="60" height="30" as="geometry" />
        </mxCell>
        <mxCell id="VD0jKBomqkg-u8sJT0UX-23" value="" style="endArrow=none;html=1;rounded=0;" parent="1" edge="1">
          <mxGeometry width="50" height="50" relative="1" as="geometry">
            <mxPoint x="570" y="380" as="sourcePoint" />
            <mxPoint x="570" y="120" as="targetPoint" />
          </mxGeometry>
        </mxCell>
        <mxCell id="VD0jKBomqkg-u8sJT0UX-26" value="" style="endArrow=none;html=1;rounded=0;exitX=1;exitY=0.5;exitDx=0;exitDy=0;" parent="1" source="VD0jKBomqkg-u8sJT0UX-18" edge="1">
          <mxGeometry width="50" height="50" relative="1" as="geometry">
            <mxPoint x="540" y="470" as="sourcePoint" />
            <mxPoint x="570" y="155" as="targetPoint" />
          </mxGeometry>
        </mxCell>
        <mxCell id="VD0jKBomqkg-u8sJT0UX-27" value="" style="endArrow=none;html=1;rounded=0;exitX=1;exitY=0.5;exitDx=0;exitDy=0;" parent="1" source="VD0jKBomqkg-u8sJT0UX-19" edge="1">
          <mxGeometry width="50" height="50" relative="1" as="geometry">
            <mxPoint x="558" y="165" as="sourcePoint" />
            <mxPoint x="570" y="205" as="targetPoint" />
          </mxGeometry>
        </mxCell>
        <mxCell id="VD0jKBomqkg-u8sJT0UX-28" value="" style="endArrow=none;html=1;rounded=0;exitX=1;exitY=0.5;exitDx=0;exitDy=0;" parent="1" source="VD0jKBomqkg-u8sJT0UX-20" edge="1">
          <mxGeometry width="50" height="50" relative="1" as="geometry">
            <mxPoint x="568" y="175" as="sourcePoint" />
            <mxPoint x="570" y="255" as="targetPoint" />
          </mxGeometry>
        </mxCell>
        <mxCell id="VD0jKBomqkg-u8sJT0UX-29" value="" style="endArrow=none;html=1;rounded=0;exitX=1;exitY=0.5;exitDx=0;exitDy=0;" parent="1" source="VD0jKBomqkg-u8sJT0UX-21" edge="1">
          <mxGeometry width="50" height="50" relative="1" as="geometry">
            <mxPoint x="578" y="185" as="sourcePoint" />
            <mxPoint x="570" y="303" as="targetPoint" />
          </mxGeometry>
        </mxCell>
        <mxCell id="VD0jKBomqkg-u8sJT0UX-30" value="" style="endArrow=classic;html=1;rounded=0;" parent="1" edge="1">
          <mxGeometry width="50" height="50" relative="1" as="geometry">
            <mxPoint x="590" y="160" as="sourcePoint" />
            <mxPoint x="630" y="160" as="targetPoint" />
          </mxGeometry>
        </mxCell>
        <mxCell id="VD0jKBomqkg-u8sJT0UX-31" value="&lt;font face=&quot;Times New Roman&quot;&gt;FCStd&lt;/font&gt;&lt;font face=&quot;Noto Sans Simplified Chinese&quot;&gt;文件导入接口&lt;/font&gt;" style="rounded=0;whiteSpace=wrap;html=1;" parent="1" vertex="1">
          <mxGeometry x="290" y="330" width="120" height="30" as="geometry" />
        </mxCell>
        <mxCell id="VD0jKBomqkg-u8sJT0UX-32" value="" style="endArrow=classic;html=1;rounded=0;exitX=1;exitY=0.5;exitDx=0;exitDy=0;entryX=-0.009;entryY=0.134;entryDx=0;entryDy=0;entryPerimeter=0;" parent="1" source="bkOhlTEBw3p1X1VrgFmf-5" target="VD0jKBomqkg-u8sJT0UX-3" edge="1">
          <mxGeometry width="50" height="50" relative="1" as="geometry">
            <mxPoint x="300" y="500" as="sourcePoint" />
            <mxPoint x="350" y="450" as="targetPoint" />
          </mxGeometry>
        </mxCell>
      </root>
    </mxGraphModel>
  </diagram>
</mxfile>
